Coordinates
version=1
nRows=17
nColumns=38
inDegrees=no

Units are S.I. units (second, meters, Newtons, ...)
If the header above contains a line with 'inDegrees', this indicates whether rotational values are in degrees (yes) or radians (no).

endheader
time	pelvis_tilt	pelvis_list	pelvis_rotation	pelvis_tx	pelvis_ty	pelvis_tz	hip_flexion_r	hip_adduction_r	hip_rotation_r	knee_angle_r	ankle_angle_r	subtalar_angle_r	mtp_angle_r	hip_flexion_l	hip_adduction_l	hip_rotation_l	knee_angle_l	ankle_angle_l	subtalar_angle_l	mtp_angle_l	lumbar_extension	lumbar_bending	lumbar_rotation	arm_flex_r	arm_add_r	arm_rot_r	elbow_flex_r	pro_sup_r	wrist_flex_r	wrist_dev_r	arm_flex_l	arm_add_l	arm_rot_l	elbow_flex_l	pro_sup_l	wrist_flex_l	wrist_dev_l
5	0.819555	1.45826	1.34201	0.640852	0.821689	1.05134	0.0156345	-0.00192958	-0.59768	0.119345	-0.34308	0	0	0.158985	-0.111202	0.00893845	0.0448285	-0.632751	0	0	0.141396	0.0830284	-0.258179	0.308642	-0.10943	0.453074	0	1.5708	0	0	-0.374066	-0.107689	-0.209462	0.803792	1.47339	0	0
5.01	0.822125	1.45792	1.33929	0.640919	0.82172	1.05128	0.0158252	-0.00144647	-0.59784	0.119117	-0.343062	0	0	0.1589	-0.11164	0.00960598	0.0440682	-0.632726	0	0	0.141873	0.083032	-0.25727	0.307512	-0.109779	0.45221	0	1.5708	0	0	-0.374287	-0.107459	-0.209372	0.803641	1.47409	0	0
5.02	0.823861	1.45778	1.33757	0.640967	0.82172	1.05124	0.015855	-0.00115034	-0.598218	0.118985	-0.343018	0	0	0.158814	-0.111932	0.00970933	0.0436216	-0.63272	0	0	0.14201	0.0829938	-0.257223	0.30686	-0.109893	0.45321	0	1.5708	0	0	-0.374708	-0.107396	-0.208996	0.803633	1.47334	0	0
5.03	0.824506	1.45748	1.3369	0.640991	0.821678	1.0512	0.0161518	-0.00102499	-0.5985	0.118938	-0.343179	0	0	0.158987	-0.112121	0.00972354	0.0432245	-0.632718	0	0	0.142484	0.0830869	-0.257011	0.306383	-0.110125	0.451875	0	1.5708	0	0	-0.374594	-0.106752	-0.209449	0.802616	1.47409	0	0
5.04	0.825804	1.45745	1.33547	0.641046	0.821657	1.05118	0.0161675	-0.000848095	-0.598783	0.118969	-0.343145	0	0	0.158761	-0.112365	0.0101703	0.0427225	-0.632665	0	0	0.142605	0.0832234	-0.257206	0.306147	-0.110088	0.452189	0	1.5708	0	0	-0.37472	-0.106296	-0.209616	0.801732	1.4741	0	0
5.05	0.827266	1.45741	1.33398	0.641094	0.821612	1.05114	0.016199	-0.000708855	-0.598964	0.119033	-0.343026	0	0	0.158682	-0.112632	0.0102374	0.0424454	-0.632654	0	0	0.142811	0.0832778	-0.25753	0.305919	-0.110031	0.452753	0	1.5708	0	0	-0.374924	-0.105896	-0.209708	0.800761	1.47434	0	0
5.06	0.828333	1.45734	1.33294	0.641134	0.821564	1.05112	0.0162747	-0.000628592	-0.59919	0.119175	-0.342903	0	0	0.158723	-0.112827	0.0100376	0.042333	-0.632651	0	0	0.143071	0.0833291	-0.258209	0.305826	-0.109924	0.4537	0	1.5708	0	0	-0.375309	-0.105502	-0.209745	0.79955	1.47473	0	0
5.07	0.829336	1.45741	1.33195	0.641185	0.82154	1.05109	0.0162682	-0.000569141	-0.599729	0.119396	-0.342708	0	0	0.158605	-0.113029	0.0101071	0.0421854	-0.632561	0	0	0.143263	0.0833989	-0.259167	0.305847	-0.109711	0.454942	0	1.5708	0	0	-0.375898	-0.105125	-0.209879	0.798331	1.47494	0	0
5.08	0.829055	1.45755	1.33235	0.641222	0.821491	1.05107	0.0162469	-0.000716318	-0.60021	0.119651	-0.342798	0	0	0.1586	-0.113021	0.00977722	0.0422947	-0.632579	0	0	0.14352	0.0832845	-0.260046	0.305942	-0.109426	0.454297	0	1.5708	0	0	-0.376383	-0.104932	-0.209596	0.79719	1.47431	0	0
5.09	0.829548	1.45774	1.33182	0.641273	0.821449	1.05105	0.016196	-0.000814645	-0.600747	0.120055	-0.34261	0	0	0.158394	-0.113068	0.00982845	0.0422407	-0.632494	0	0	0.143659	0.0832808	-0.261193	0.306156	-0.108966	0.455355	0	1.5708	0	0	-0.377086	-0.104365	-0.21036	0.796369	1.47388	0	0
5.1	0.830766	1.45775	1.33043	0.641347	0.821421	1.05107	0.0161778	-0.000597679	-0.600636	0.119939	-0.34259	0	0	0.158274	-0.113256	0.010322	0.0419739	-0.632453	0	0	0.143106	0.0833607	-0.260402	0.305878	-0.108989	0.455486	0	1.5708	0	0	-0.376675	-0.10412	-0.210703	0.795695	1.47335	0	0
5.11	0.831414	1.45768	1.32951	0.641404	0.821358	1.05109	0.0163452	-0.000459801	-0.60001	0.119793	-0.342651	0	0	0.158394	-0.113383	0.0100751	0.0419927	-0.632486	0	0	0.142661	0.0833889	-0.25921	0.305504	-0.109205	0.454665	0	1.5708	0	0	-0.376137	-0.104245	-0.210101	0.794713	1.4737	0	0
5.12	0.832004	1.45761	1.32859	0.641462	0.821311	1.05111	0.0164554	-0.000265704	-0.5992	0.119505	-0.34282	0	0	0.15847	-0.113505	0.00996478	0.0419867	-0.632556	0	0	0.142379	0.0834648	-0.258023	0.305102	-0.109427	0.453408	0	1.5708	0	0	-0.375573	-0.10451	-0.209086	0.793337	1.47434	0	0
5.13	0.832451	1.45748	1.32787	0.641506	0.821262	1.05112	0.0166693	-0.000133557	-0.598684	0.119397	-0.34304	0	0	0.158694	-0.113618	0.00952815	0.0421368	-0.632607	0	0	0.142313	0.0835259	-0.256929	0.304658	-0.109607	0.451817	0	1.5708	0	0	-0.375138	-0.104554	-0.20837	0.792093	1.47466	0	0
5.14	0.83373	1.45744	1.32623	0.641586	0.82124	1.05113	0.0167162	0.000112689	-0.598354	0.119228	-0.343192	0	0	0.1587	-0.113824	0.00962674	0.0421608	-0.632492	0	0	0.142201	0.08355	-0.255846	0.304249	-0.109554	0.449874	0	1.5708	0	0	-0.374983	-0.104317	-0.208572	0.791396	1.47434	0	0
5.15	0.834637	1.45746	1.32506	0.641671	0.821211	1.05115	0.0167383	0.000300112	-0.598143	0.119082	-0.343339	0	0	0.158716	-0.113988	0.00970649	0.0422401	-0.632443	0	0	0.141971	0.0835077	-0.255134	0.304054	-0.10941	0.448163	0	1.5708	0	0	-0.374854	-0.103921	-0.209155	0.79099	1.47298	0	0
5.16	0.83511	1.45758	1.32436	0.64175	0.821171	1.05117	0.0165346	0.000454245	-0.597821	0.118655	-0.343605	0	0	0.158663	-0.114054	0.00970878	0.0423572	-0.632472	0	0	0.141691	0.0834264	-0.254745	0.30397	-0.109237	0.447035	0	1.5708	0	0	-0.374807	-0.104036	-0.208873	0.790297	1.47271	0	0
